<svg id="Layer_1" data-name="Layer 1" xmlns="http://www.w3.org/2000/svg" viewBox="0 0 454.81 257.14"><defs><style>.cls-1{fill:#9e1f63;}.cls-1,.cls-10,.cls-2,.cls-3,.cls-4,.cls-5,.cls-6,.cls-7,.cls-8,.cls-9{fill-rule:evenodd;}.cls-2{fill:#374a9f;}.cls-3{fill:#662d91;}.cls-4{fill:#16ab4b;}.cls-5{fill:#aa1e30;}.cls-6{fill:#d93b25;}.cls-7{fill:#1c75bc;}.cls-8{fill:#ec008c;}.cls-9{fill:#f26322;}.cls-10,.cls-11{fill:#ed1c24;}.cls-12{fill:#191919;}</style></defs><path class="cls-1" d="M414.8,207.39c15,18.94,25.41-11.88,42,2a21.16,21.16,0,0,0-1.88-3.32c-5.74-8.21-15.37-10.66-23.75-6.41-5.5,2.78-9.64,10.55-16.37,7.77" transform="translate(-193.53 -187.27)"/><path class="cls-1" d="M430.35,197a5.66,5.66,0,0,1-8-.39,5.58,5.58,0,0,1,.38-7.89,5.69,5.69,0,0,1,8,.38,5.55,5.55,0,0,1-.38,7.9" transform="translate(-193.53 -187.27)"/><path class="cls-2" d="M444.53,214.69c-.81,24.08,27.15,7.16,30.85,28.35a20.68,20.68,0,0,0,.72-3.73c.94-9.95-4.84-18-14-20.09-6-1.39-14.22,1.9-17.57-4.53" transform="translate(-193.53 -187.27)"/><path class="cls-2" d="M463.19,216.68a5.59,5.59,0,1,1,5.42-5.8,5.61,5.61,0,0,1-5.42,5.8" transform="translate(-193.53 -187.27)"/><path class="cls-3" d="M462.54,239.29c-16.27,17.89,16.1,22.82,5.18,41.39a20.27,20.27,0,0,0,3-2.4c7.18-7,8-16.85,2.35-24.31-3.71-4.9-12.13-7.64-10.5-14.68" transform="translate(-193.53 -187.27)"/><path class="cls-3" d="M475.5,252.73a5.56,5.56,0,0,1-1-7.85,5.7,5.7,0,0,1,7.91-1,5.59,5.59,0,0,1,1,7.84,5.67,5.67,0,0,1-7.92,1" transform="translate(-193.53 -187.27)"/><path class="cls-4" d="M460.33,269.6c-24.06,3.29-2.5,27.75-22.92,35a20.33,20.33,0,0,0,3.83.07c10-.77,17.05-7.78,17.58-17.1.36-6.12-4.3-13.58,1.51-17.94" transform="translate(-193.53 -187.27)"/><path class="cls-4" d="M461.52,288.17a5.59,5.59,0,0,1,4.36-6.62,5.59,5.59,0,1,1-4.36,6.62" transform="translate(-193.53 -187.27)"/><path class="cls-5" d="M439,291.38C418.42,278.51,419,311,398.72,303.47a20.69,20.69,0,0,0,2.89,2.5c8.18,5.83,18.09,4.95,24.54-1.84,4.25-4.45,5.53-13.14,12.81-12.75" transform="translate(-193.53 -187.27)"/><path class="cls-5" d="M427.81,306.34a5.65,5.65,0,0,1,7.63-2.28,5.59,5.59,0,0,1,2.3,7.56,5.68,5.68,0,0,1-7.62,2.29,5.57,5.57,0,0,1-2.31-7.57" transform="translate(-193.53 -187.27)"/><path class="cls-6" d="M408.47,294.36c-7.35-23-28,2.27-38.62-16.46a19.84,19.84,0,0,0,.58,3.75c2.47,9.68,10.62,15.35,20,14.28,6.13-.69,12.76-6.52,18.07-1.57" transform="translate(-193.53 -187.27)"/><path class="cls-6" d="M390.23,298.68a5.6,5.6,0,1,1-3.15,7.27,5.58,5.58,0,0,1,3.15-7.27" transform="translate(-193.53 -187.27)"/><path class="cls-7" d="M383.22,277.17c9.28-22.27-22.88-16.17-18.85-37.29a20.2,20.2,0,0,0-2,3.24c-4.4,9-1.85,18.53,6,23.69,5.14,3.39,14,3.17,14.85,10.36" transform="translate(-193.53 -187.27)"/><path class="cls-7" d="M366.46,268.8a5.58,5.58,0,0,1,3.56,7.08,5.63,5.63,0,1,1-3.56-7.08" transform="translate(-193.53 -187.27)"/><path class="cls-8" d="M375.07,247.86c21.56-11.08-7-27,9.79-40.56a20.25,20.25,0,0,0-3.62,1.21c-9.21,4.06-13.44,13-10.8,21.94,1.73,5.89,8.64,11.38,4.63,17.41" transform="translate(-193.53 -187.27)"/><path class="cls-8" d="M367.68,230.76a5.56,5.56,0,0,1-1.86,7.68,5.69,5.69,0,0,1-7.75-1.85,5.58,5.58,0,0,1,1.87-7.68,5.65,5.65,0,0,1,7.74,1.85" transform="translate(-193.53 -187.27)"/><path class="cls-9" d="M387.11,220.5c23.69,5.3,12.17-25.12,33.84-24.76a20.28,20.28,0,0,0-3.56-1.4c-9.68-2.77-18.72,1.35-22.51,9.89-2.5,5.6-.78,14.21-7.77,16.27" transform="translate(-193.53 -187.27)"/><path class="cls-9" d="M392.57,202.69a5.63,5.63,0,1,1-4.72-6.36,5.62,5.62,0,0,1,4.72,6.36" transform="translate(-193.53 -187.27)"/><path class="cls-10" d="M424.35,237.92a1.32,1.32,0,0,0-.31-1.43,8,8,0,0,0-3.07-2.41c-1.39-.42-1.71.68-2.11,1.43L416.81,239c-.25.4-.42.76-.67,1.13l-3.57,5.67c-.24.37-.46.75-.67,1.14s-.49.78-.73,1.15c-.84,1.37-1.88,3.31-2.72,4.62l-2,3.51c-1.49,2.81-5,8.82-3,12.37.68,1.16,3.25,3.59,4.32,2.37a3.21,3.21,0,0,0,.42-1.37A34.82,34.82,0,0,1,410,264c1-2.62,2.2-5,3.48-7.55.22-.44.45-.79.66-1.2.68-1.32,1.29-2.28,1.95-3.55.44-.84.93-1.52,1.35-2.32.73-1.43,1.94-3.14,2.77-4.58.46-.81.92-1.46,1.42-2.25.26-.41.45-.78.72-1.17.42-.66,1.79-2.8,2-3.43" transform="translate(-193.53 -187.27)"/><path class="cls-10" d="M422.26,232.61a39.31,39.31,0,0,1,5.91-.84c2.48,0,3.88-.26,6,.66,1.42.63,3.11,1.77,3.11,3.63a9.62,9.62,0,0,1-1,4.23l5.51-2.79a13.64,13.64,0,0,0-3.05-5.2c-.19-.21-.49-.42-.72-.66a11.4,11.4,0,0,0-2.35-1.77,12.44,12.44,0,0,0-4.07-1.44,25.21,25.21,0,0,0-5.21,0c-1.57.12-3.22.47-4.76.72a56.57,56.57,0,0,0-12.23,4.28c-2.47,1.2-4.89,2.36-7.22,3.76-1.28.78-2.52,1.63-3.72,2.46a4.2,4.2,0,0,0-.38.3c-.27.2-.54.42-.76.61a11.25,11.25,0,0,0-1.47,1.28c-.24.31-.76.69-1.36,1.38l-1.2,1.55c-.5.76-1.66,3-1.11,4.05.48.87,2.27,2.31,3.15,2.31s1.21-.58,1.67-1l.87-.82c.42-.44.84-.73,1.3-1.13l3.27-2.53a10.72,10.72,0,0,0,2.28-1.9c.37-.49.37-.62.26-1.3-.2-1.25-.93-2-.29-2.47a53.33,53.33,0,0,1,9.82-5.1c.84-.31,1.64-.55,2.47-.84s1.66-.56,2.56-.81,1.78-.38,2.68-.63" transform="translate(-193.53 -187.27)"/><path class="cls-10" d="M443.25,259.61c-.32.36-.72.82-1.31,1.42-.34.34-.5.59-.8.88a25.88,25.88,0,0,1-3.78,3,13.24,13.24,0,0,1-2.29,1.15,6.81,6.81,0,0,1-5.54-.19,8.51,8.51,0,0,1-2-1.39,7.76,7.76,0,0,1-.89-.85,15.36,15.36,0,0,1-3.13-5.34c-.34-1.16-.44-1,1.28-1.62.88-.29,1.61-.68,2.42-1a45.18,45.18,0,0,0,7.66-4.32c.32-.27.64-.5,1-.73.68-.47,1.2-1,1.83-1.53.37-.31.52-.6.84-.9a17.15,17.15,0,0,0,2.21-2.85,19.34,19.34,0,0,0,1.05-2.38,9.71,9.71,0,0,0,.49-2.82c-2.18,1-5,2.06-7.52,3a31.59,31.59,0,0,1-4.56,4.92,6.11,6.11,0,0,0-.72.64l-1.53,1.22a51,51,0,0,1-5.73,3.89c-1.76,1.08-3.91,1.75-3.87,4.35a15.26,15.26,0,0,0,2.75,8.22c1.71,2.54,4.61,5.21,8.32,5.4a12.45,12.45,0,0,0,4.57-.93,24.38,24.38,0,0,0,6.7-4.29l.71-.67c.27-.2,3.73-2.95,4.28-3.38-.1-1.61-1.4-3.14-2.36-2.91" transform="translate(-193.53 -187.27)"/><path class="cls-11" d="M252.25,372.47h0A13.09,13.09,0,0,1,242,368.11c-2.73-3-4-6.88-4-11.86s1.33-8.88,4.06-11.93a14,14,0,0,1,20.43,0c2.72,3.06,4,7,4,11.95s-1.31,8.87-4,11.87a13,13,0,0,1-10.21,4.35M278,383.2v-54H265.74v4.57a25.28,25.28,0,0,0-14.86-4.63,24,24,0,0,0-18.3,7.81c-4.74,5.13-7.15,11.63-7.15,19.33s2.42,14.21,7.18,19.3a24,24,0,0,0,18.27,7.71,25.31,25.31,0,0,0,14.86-4.63v4.57Z" transform="translate(-193.53 -187.27)"/><path class="cls-11" d="M283.87,388.2a2.89,2.89,0,0,1-.82,2.21,3.06,3.06,0,0,1-2.36.8,5.67,5.67,0,0,1-3.78-1.64L275.07,388l-6.93,8.15,1.95,1.51a18.55,18.55,0,0,0,11.5,4.23,14.37,14.37,0,0,0,10.54-4c2.64-2.63,4-6.19,4-10.57V329.17H283.87Z" transform="translate(-193.53 -187.27)"/><path class="cls-11" d="M335.92,368.12h0a13,13,0,0,1-10.2,4.35,13.09,13.09,0,0,1-10.25-4.36c-2.72-3-4.05-6.87-4.05-11.86s1.33-8.88,4.06-11.93a13,13,0,0,1,10.24-4.42,12.86,12.86,0,0,1,10.19,4.4c2.73,3.07,4,7,4,11.95s-1.31,8.85-4,11.87m3.29-34.38a25.28,25.28,0,0,0-14.86-4.63A24,24,0,0,0,306,336.92c-4.74,5.14-7.14,11.64-7.14,19.33s2.41,14.2,7.18,19.3a24.05,24.05,0,0,0,18.28,7.71,25.28,25.28,0,0,0,14.86-4.63v4.57h12.24v-54H339.21Z" transform="translate(-193.53 -187.27)"/><polygon class="cls-11" points="197.18 141.9 175.45 163.77 175.45 141.9 163.2 141.9 163.2 195.99 175.45 195.99 175.45 180.04 179.47 176.06 195.62 195.99 211.37 195.99 187.83 167.79 214.31 141.9 197.18 141.9"/><path class="cls-11" d="M445.65,358.77c0,4.31-1.27,7.58-3.89,10a12.88,12.88,0,0,1-9.16,3.68c-3.08,0-5.37-.92-7-2.82a11.48,11.48,0,0,1-2.59-7.89V329.17H410.76v33c0,6.35,2,11.51,5.89,15.36a20.13,20.13,0,0,0,14.53,5.72,23.83,23.83,0,0,0,14.47-4.76v4.7h12.26v-54H445.65Z" transform="translate(-193.53 -187.27)"/><path class="cls-11" d="M521.32,329.17c-6,0-11.67,2.56-17,7.63a18.29,18.29,0,0,0-15.5-7.63,21.35,21.35,0,0,0-13.2,4.6v-4.6H463.36v54h12.25V353.65c0-4.35,1.19-7.64,3.64-10.08a11.39,11.39,0,0,1,8.34-3.63c3.85,0,8.26,1.22,8.26,10.71V383.2H508.1V353.65c0-4.34,1.2-7.63,3.67-10.08a11.3,11.3,0,0,1,8.22-3.63c3.83,0,8.23,1.22,8.23,10.71V383.2h12.29v-33c0-6.44-1.82-11.61-5.38-15.36a18.32,18.32,0,0,0-13.81-5.71" transform="translate(-193.53 -187.27)"/><path class="cls-11" d="M580,368.12h0a14.18,14.18,0,0,1-20.45,0c-2.73-3-4.05-6.87-4.05-11.86s1.32-8.88,4.06-11.93a14,14,0,0,1,20.43,0c2.72,3.07,4,7,4,12s-1.32,8.86-4,11.87m3.29-34.38a25.31,25.31,0,0,0-14.86-4.63,24,24,0,0,0-18.31,7.81C545.42,342,543,348.55,543,356.25s2.42,14.2,7.19,19.3a24.05,24.05,0,0,0,18.28,7.71,25.31,25.31,0,0,0,14.86-4.63v4.57h12.25v-54H583.33Z" transform="translate(-193.53 -187.27)"/><rect class="cls-11" x="442.52" y="141.9" width="12.29" height="54.09"/><path class="cls-11" d="M205.77,333.17v-4H193.53v54h12.24v-34c0-2.72.73-4.61,2.25-5.8a9.64,9.64,0,0,1,6.16-1.92,16.43,16.43,0,0,1,5.23.77l3.13,1V329.17h-2.67a24.69,24.69,0,0,0-14.1,4" transform="translate(-193.53 -187.27)"/><path class="cls-11" d="M613.74,333.17v-4H601.49v54h12.25v-34c0-2.72.74-4.61,2.25-5.8a9.66,9.66,0,0,1,6.16-1.92,16.38,16.38,0,0,1,5.23.77l3.12,1V329.17h-2.66a24.71,24.71,0,0,0-14.1,4" transform="translate(-193.53 -187.27)"/><path class="cls-12" d="M560.58,437.88c0-5-4.11-6.33-7.48-7.52-2.35-.84-4.39-1.62-4.39-3.62s1.3-3.41,4.56-3.41a10.68,10.68,0,0,1,4.78,1.23l1.12-3a20.58,20.58,0,0,0-5.86-.95c-4.18,0-8.18,1.72-8.18,6.11s3.44,5.59,6.6,6.75c2.74,1,5.27,1.89,5.27,4.46,0,3-2.6,3.75-5.38,3.75a15.76,15.76,0,0,1-5.37-1.33l-1.12,3a27.57,27.57,0,0,0,6.46,1.05c4.71,0,9-1.26,9-6.53m-23-5.52c0,6.61-2.49,8.71-6.91,8.71h-3.31V423.76h3C535,423.76,537.57,425.23,537.57,432.36Zm3.62,0c0-8.26-3.27-11.28-10.85-11.28h-6.5v22.73h6.5C537.92,443.78,541.19,440.62,541.19,432.33Zm-23.57,11.45V421.05h-3.44v18.58l-9.31-18.58h-5.12v22.73h3.3V425.19l9.38,18.59ZM491.14,432.5c0,5.73-1.62,9.2-6.53,9.2s-6.64-3.05-6.64-9.2,1.86-9.17,6.64-9.17S491.14,426.46,491.14,432.5Zm3.62,0c0-6.92-2.53-11.87-10.12-11.87s-10.29,5.16-10.29,11.87,2.39,11.91,10.26,11.91C492.16,444.41,494.76,439.25,494.76,432.5Zm-25.4,11.28V421.05h-5.3L457.35,439l-6.6-17.95h-5.59v22.73h3.3v-19l7.1,19h3.34l7.06-19v19Zm-35.12-9.07h-6.85l3.55-9.59Zm7,9.07-8.57-22.73h-3.09l-9.24,22.73H424l2.39-6.43h8.71l2.24,6.43Zm-24.41,0V421.05H413.3v22.73Zm-11.7-11.42c0,6.61-2.49,8.71-6.92,8.71h-3.3V423.76h3C402.56,423.76,405.12,425.23,405.12,432.36Zm3.62,0c0-8.26-3.27-11.28-10.85-11.28h-6.5v22.73h6.5C405.47,443.78,408.74,440.62,408.74,432.33Zm-35.58-6.22c0,2-1.72,3-3.3,3.65-.78-.7-2.36-1.68-2.36-3.41,0-2,.71-3.4,2.74-3.4C372.56,423,373.16,424.32,373.16,426.11Zm5.27,17.67c-.07-.95-.49-3.16-.49-4.92v-5.3h-6.47v2.24h3.37v3.55a5,5,0,0,1-3.82,2.53c-3.17,0-4.18-2.39-4.18-4.39,0-3,1.3-4.53,3.79-5.59,2.91-1.22,5.69-2.95,5.69-5.76,0-3.83-2.25-5.62-6-5.62-4.39,0-6,2.67-6,5.87,0,2.56,2.17,3.79,3.26,4.64a6.78,6.78,0,0,0-4,6.53c0,4.92,3.45,6.74,7.13,6.74a5.69,5.69,0,0,0,4.32-2.24l.5,1.72Zm-30.18-11.42c0,6.61-2.49,8.71-6.91,8.71H338V423.76h3C345.69,423.76,348.25,425.23,348.25,432.36Zm3.62,0c0-8.26-3.26-11.28-10.85-11.28h-6.5v22.73H341C348.61,443.78,351.87,440.62,351.87,432.33Zm-20.44,11.45V441h-9.9V421.05H318v22.73Zm-22-11.28c0,5.73-1.62,9.2-6.53,9.2s-6.64-3.05-6.64-9.2,1.86-9.17,6.64-9.17S309.41,426.46,309.41,432.5Zm3.62,0c0-6.92-2.53-11.87-10.12-11.87s-10.29,5.16-10.29,11.87,2.39,11.91,10.26,11.91C310.43,444.41,313,439.25,313,432.5Zm-24.17,9.91V432.08h-8.15v2.7h5v5.8a7.86,7.86,0,0,1-4.07,1.12c-5.16,0-6.5-3.82-6.5-9.3,0-6.61,2.46-9.07,6.75-9.07a11,11,0,0,1,4.32,1.16l1.12-3a25.22,25.22,0,0,0-5.48-.88c-7.37,0-10.32,4.78-10.32,11.77,0,6.14,2,12,10,12A13.36,13.36,0,0,0,288.86,442.41Z" transform="translate(-193.53 -187.27)"/></svg>